<?xml version="1.0" standalone="no"?>
<!DOCTYPE svg PUBLIC "-//W3C//DTD SVG 20010904//EN"
 "http://www.w3.org/TR/2001/REC-SVG-20010904/DTD/svg10.dtd">
<svg version="1.0" xmlns="http://www.w3.org/2000/svg"
 width="500.000000pt" height="500.000000pt" viewBox="0 0 500.000000 500.000000"
 preserveAspectRatio="xMidYMid meet">
<metadata>
Created by potrace 1.11, written by Peter Selinger 2001-2013
</metadata>
<g transform="translate(0.000000,500.000000) scale(0.100000,-0.100000)"
fill="#000000" stroke="none">
<path d="M2255 4590 c-29 -12 -1286 -1134 -1312 -1171 -27 -38 -29 -69 -7
-114 23 -48 66 -65 168 -65 l86 0 0 -665 c0 -480 3 -671 12 -689 25 -55 46
-61 255 -64 l192 -4 3 -276 3 -277 28 -56 c32 -67 109 -142 175 -172 46 -21
59 -22 479 -25 l432 -3 298 -304 c206 -211 305 -305 319 -305 47 0 48 13 25
272 -12 134 -25 264 -28 290 l-5 46 223 4 c203 3 228 5 270 24 55 26 123 85
155 135 55 88 55 84 52 875 l-3 729 -26 56 c-33 69 -91 129 -161 166 -52 28
-56 28 -260 31 l-208 3 0 105 0 104 88 0 c70 0 94 4 120 20 66 40 76 125 21
180 -60 60 -1272 1136 -1292 1147 -25 14 -73 16 -102 3z m1163 -2124 c-3 -555
-3 -565 -24 -593 -40 -54 -29 -53 -917 -51 l-822 3 -3 450 c-2 426 -1 453 18
516 31 103 119 192 223 225 33 10 203 13 785 13 l742 1 -2 -564z"/>
</g>
</svg>
